# Blender 4.2.3 LTS
# www.blender.org
mtllib ramp.mtl
o Cube
v 1.000000 1.000000 -1.000000
v 1.000000 -1.000000 -1.000000
v 1.000000 1.000000 1.000000
v 1.000000 -1.000000 1.000000
v -1.000000 -0.442423 -1.000000
v -1.000000 -1.000000 -1.000000
v -1.000000 1.000000 1.000000
v -1.000000 -1.000000 1.000000
v 0.400000 -1.000000 -1.000000
v 0.400000 1.000000 1.000000
v 0.400000 -1.000000 1.000000
v 0.400000 1.000000 -1.000000
v -1.000000 -1.000000 0.500000
v 1.000000 1.000000 0.500000
v -1.000000 1.000000 0.500000
v 1.000000 -1.000000 0.500000
v 0.400000 -1.000000 0.500000
v 0.400000 1.000000 0.500000
v 0.330000 -1.000000 -1.000000
v 0.330000 1.000000 1.000000
v 0.330000 -1.000000 1.000000
v 0.330000 -0.442423 -1.000000
v 0.330000 -1.000000 0.500000
v 0.330000 1.000000 0.500000
vn -0.0000 1.0000 -0.0000
vn -0.0000 -0.0000 1.0000
vn -1.0000 -0.0000 -0.0000
vn -0.0000 -1.0000 -0.0000
vn 1.0000 -0.0000 -0.0000
vn -0.0000 -0.0000 -1.0000
vn -0.0000 0.7208 -0.6931
vn -0.9943 0.0965 -0.0464
vt 0.708750 0.687500
vt 0.875000 0.687500
vt 0.875000 0.750000
vt 0.708750 0.750000
vt 0.375000 0.833750
vt 0.625000 0.833750
vt 0.625000 1.000000
vt 0.375000 1.000000
vt 0.375000 0.062500
vt 0.625000 0.062500
vt 0.625000 0.250000
vt 0.375000 0.250000
vt 0.300000 0.687500
vt 0.375000 0.687500
vt 0.375000 0.750000
vt 0.300000 0.750000
vt 0.625000 0.687500
vt 0.625000 0.750000
vt 0.375000 0.425000
vt 0.625000 0.425000
vt 0.625000 0.500000
vt 0.375000 0.500000
vt 0.375000 0.416250
vt 0.625000 0.416250
vt 0.291250 0.687500
vt 0.291250 0.750000
vt 0.625000 0.825000
vt 0.375000 0.825000
vt 0.700000 0.687500
vt 0.700000 0.750000
vt 0.700000 0.500000
vt 0.291250 0.500000
vt 0.300000 0.500000
vt 0.375000 0.000000
vt 0.625000 0.000000
vt 0.708750 0.500000
vt 0.875000 0.500000
vt 0.125000 0.500000
vt 0.125000 0.687500
vt 0.125000 0.750000
s 0
usemtl Material
f 24/1/1 15/2/1 7/3/1 20/4/1
f 21/5/2 20/6/2 7/7/2 8/8/2
f 13/9/3 15/10/3 5/11/3 6/12/3
f 17/13/4 16/14/4 4/15/4 11/16/4
f 16/14/5 14/17/5 3/18/5 4/15/5
f 9/19/6 12/20/6 1/21/6 2/22/6
f 19/23/6 22/24/6 12/20/6 9/19/6
f 23/25/4 17/13/4 11/16/4 21/26/4
f 4/15/2 3/18/2 10/27/2 11/28/2
f 14/17/1 18/29/1 10/30/1 3/18/1
f 1/21/1 12/31/1 18/29/1 14/17/1
f 19/32/4 9/33/4 17/13/4 23/25/4
f 2/22/5 1/21/5 14/17/5 16/14/5
f 9/33/4 2/22/4 16/14/4 17/13/4
f 8/34/3 7/35/3 15/10/3 13/9/3
f 22/36/7 5/37/7 15/2/7 24/1/7
f 12/31/8 22/36/8 24/1/8 18/29/8
f 6/38/4 19/32/4 23/25/4 13/39/4
f 13/39/4 23/25/4 21/26/4 8/40/4
f 6/12/6 5/11/6 22/24/6 19/23/6
f 11/28/2 10/27/2 20/6/2 21/5/2
f 18/29/1 24/1/1 20/4/1 10/30/1
